<?xml version="1.0" encoding="iso-8859-1"?>
<!-- Generator: Adobe Illustrator 17.1.0, SVG Export Plug-In . SVG Version: 6.00 Build 0)  -->
<!DOCTYPE svg PUBLIC "-//W3C//DTD SVG 1.1//EN" "http://www.w3.org/Graphics/SVG/1.1/DTD/svg11.dtd">
<svg version="1.1" id="Capa_1" xmlns="http://www.w3.org/2000/svg" xmlns:xlink="http://www.w3.org/1999/xlink" x="0px" y="0px"
	 viewBox="0 0 328.743 328.743" style="enable-background:new 0 0 328.743 328.743;" xml:space="preserve">
<g>
	<path style="fill:#000002;" d="M211.383,55.259H22.5c-12.407,0-22.5,10.093-22.5,22.5v140.795c0,12.407,10.093,22.5,22.5,22.5
		H79.96v17.429H54.663c-4.142,0-7.5,3.358-7.5,7.5c0,4.142,3.358,7.5,7.5,7.5H79.96h73.961h25.298c4.142,0,7.5-3.358,7.5-7.5
		c0-4.142-3.358-7.5-7.5-7.5h-25.298v-17.429h57.462c12.407,0,22.5-10.093,22.5-22.5V77.759
		C233.883,65.353,223.79,55.259,211.383,55.259z M22.5,70.259h188.883c4.136,0,7.5,3.364,7.5,7.5v111.13H15V77.759
		C15,73.624,18.364,70.259,22.5,70.259z M138.921,258.483H94.96v-17.429h43.961V258.483z M211.383,226.055H22.5
		c-4.136,0-7.5-3.365-7.5-7.5v-14.665h203.883v14.665C218.883,222.69,215.519,226.055,211.383,226.055z"/>
	<path style="fill:#000002;" d="M311.243,80.494h-46.331c-9.649,0-17.5,7.851-17.5,17.5v157.99c0,9.65,7.851,17.5,17.5,17.5h46.331
		c9.649,0,17.5-7.85,17.5-17.5V97.994C328.743,88.344,320.892,80.494,311.243,80.494z M262.411,181.725h51.331v12.638h-51.331
		V181.725z M264.911,95.494h46.331c1.355,0,2.5,1.145,2.5,2.5v68.731h-51.331V97.994C262.411,96.639,263.556,95.494,264.911,95.494z
		 M311.243,258.483h-46.331c-1.355,0-2.5-1.145-2.5-2.5v-46.62h51.331v46.62C313.743,257.338,312.598,258.483,311.243,258.483z"/>
	<path style="fill:#000002;" d="M285.682,126.08h4.79c4.142,0,7.5-3.358,7.5-7.5c0-4.142-3.358-7.5-7.5-7.5h-4.79
		c-4.142,0-7.5,3.358-7.5,7.5C278.182,122.722,281.54,126.08,285.682,126.08z"/>
</g>
<g>
</g>
<g>
</g>
<g>
</g>
<g>
</g>
<g>
</g>
<g>
</g>
<g>
</g>
<g>
</g>
<g>
</g>
<g>
</g>
<g>
</g>
<g>
</g>
<g>
</g>
<g>
</g>
<g>
</g>
</svg>
