<?xml version="1.0" encoding="iso-8859-1"?>
<!-- Generator: Adobe Illustrator 19.0.0, SVG Export Plug-In . SVG Version: 6.00 Build 0)  -->
<svg version="1.1" id="Capa_1" xmlns="http://www.w3.org/2000/svg" xmlns:xlink="http://www.w3.org/1999/xlink" x="0px" y="0px"
	 viewBox="0 0 465.095 465.095" style="enable-background:new 0 0 465.095 465.095;" xml:space="preserve">
<g>
	<g>
		<path d="M47.559,198.05h52.498c4.142,0,7.5-3.357,7.5-7.5v-35.999c0-4.143-3.358-7.5-7.5-7.5H47.559c-4.142,0-7.5,3.357-7.5,7.5
			v35.999C40.059,194.693,43.417,198.05,47.559,198.05z M55.059,162.051h37.498v20.999H55.059V162.051z"/>
		<path d="M125.93,198.05h52.498c4.142,0,7.5-3.357,7.5-7.5v-35.999c0-4.143-3.358-7.5-7.5-7.5H125.93c-4.142,0-7.5,3.357-7.5,7.5
			v35.999C118.43,194.693,121.788,198.05,125.93,198.05z M133.43,162.051h37.498v20.999H133.43V162.051z"/>
		<path d="M204.301,198.05h52.498c4.142,0,7.5-3.357,7.5-7.5v-35.999c0-4.143-3.358-7.5-7.5-7.5h-52.498c-4.142,0-7.5,3.357-7.5,7.5
			v35.999C196.801,194.693,200.159,198.05,204.301,198.05z M211.801,162.051h37.498v20.999h-37.498V162.051z"/>
		<path d="M282.672,198.05h52.498c4.142,0,7.5-3.357,7.5-7.5v-35.999c0-4.143-3.358-7.5-7.5-7.5h-52.498c-4.142,0-7.5,3.357-7.5,7.5
			v35.999C275.172,194.693,278.53,198.05,282.672,198.05z M290.172,162.051h37.498v20.999h-37.498V162.051z"/>
		<path d="M361.043,198.05h52.498c4.142,0,7.5-3.357,7.5-7.5v-35.999c0-4.143-3.358-7.5-7.5-7.5h-52.498c-4.142,0-7.5,3.357-7.5,7.5
			v35.999C353.543,194.693,356.901,198.05,361.043,198.05z M368.543,162.051h37.498v20.999h-37.498L368.543,162.051L368.543,162.051
			z"/>
		<path d="M47.559,267.796h52.498c4.142,0,7.5-3.357,7.5-7.5v-35.998c0-4.143-3.358-7.5-7.5-7.5H47.559c-4.142,0-7.5,3.357-7.5,7.5
			v35.998C40.059,264.439,43.417,267.796,47.559,267.796z M55.059,231.798h37.498v20.998H55.059V231.798z"/>
		<path d="M125.93,267.796h52.498c4.142,0,7.5-3.357,7.5-7.5v-35.998c0-4.143-3.358-7.5-7.5-7.5H125.93c-4.142,0-7.5,3.357-7.5,7.5
			v35.998C118.43,264.439,121.788,267.796,125.93,267.796z M133.43,231.798h37.498v20.998H133.43V231.798z"/>
		<path d="M204.301,267.796h52.498c4.142,0,7.5-3.357,7.5-7.5v-35.998c0-4.143-3.358-7.5-7.5-7.5h-52.498
			c-4.142,0-7.5,3.357-7.5,7.5v35.998C196.801,264.439,200.159,267.796,204.301,267.796z M211.801,231.798h37.498v20.998h-37.498
			V231.798z"/>
		<path d="M282.672,267.796h52.498c4.142,0,7.5-3.357,7.5-7.5v-35.998c0-4.143-3.358-7.5-7.5-7.5h-52.498
			c-4.142,0-7.5,3.357-7.5,7.5v35.998C275.172,264.439,278.53,267.796,282.672,267.796z M290.172,231.798h37.498v20.998h-37.498
			V231.798z"/>
		<path d="M361.043,267.796h52.498c4.142,0,7.5-3.357,7.5-7.5v-35.998c0-4.143-3.358-7.5-7.5-7.5h-52.498
			c-4.142,0-7.5,3.357-7.5,7.5v35.998C353.543,264.439,356.901,267.796,361.043,267.796z M368.543,231.798h37.498v20.998h-37.498
			L368.543,231.798L368.543,231.798z"/>
		<path d="M47.559,337.542h52.498c4.142,0,7.5-3.357,7.5-7.5v-35.998c0-4.143-3.358-7.5-7.5-7.5H47.559c-4.142,0-7.5,3.357-7.5,7.5
			v35.998C40.059,334.185,43.417,337.542,47.559,337.542z M55.059,301.544h37.498v20.998H55.059V301.544z"/>
		<path d="M361.043,337.542h52.498c4.142,0,7.5-3.357,7.5-7.5v-35.998c0-4.143-3.358-7.5-7.5-7.5h-52.498
			c-4.142,0-7.5,3.357-7.5,7.5v35.998C353.543,334.185,356.901,337.542,361.043,337.542z M368.543,301.544h37.498v20.998h-37.498
			L368.543,301.544L368.543,301.544z"/>
		<path d="M457.595,85.555H7.5c-4.142,0-7.5,3.357-7.5,7.5v31.498c0,4.143,3.358,7.5,7.5,7.5h5.056V372.04
			c0,4.143,3.358,7.5,7.5,7.5h424.983c4.142,0,7.5-3.357,7.5-7.5V132.053h5.056c4.142,0,7.5-3.357,7.5-7.5V93.055
			C465.095,88.912,461.737,85.555,457.595,85.555z M15,100.555h435.095v16.498H15V100.555z M313.381,337.542h-40v-28.571
			c0-4.143-3.358-7.5-7.5-7.5h-66.667c-4.142,0-7.5,3.357-7.5,7.5v28.571h-40v-42.215h161.667L313.381,337.542L313.381,337.542z
			 M206.714,337.542v-21.071h18.333v21.071H206.714z M240.047,316.471h18.333v21.071h-18.333V316.471z M143.339,364.54l4.158-11.998
			h170.1l4.158,11.998H143.339z M437.539,364.54h-99.908c0,0-2.705-7.114-9.25-24.63v-52.083c0-4.143-3.358-7.5-7.5-7.5H144.214
			c-4.142,0-7.5,3.357-7.5,7.5v52.083c-4.914,13.016-9.25,24.63-9.25,24.63H27.556V132.053h409.983V364.54z"/>
	</g>
</g>
<g>
</g>
<g>
</g>
<g>
</g>
<g>
</g>
<g>
</g>
<g>
</g>
<g>
</g>
<g>
</g>
<g>
</g>
<g>
</g>
<g>
</g>
<g>
</g>
<g>
</g>
<g>
</g>
<g>
</g>
</svg>
